<?xml version="1.0" encoding="UTF-8" standalone="no"?>
<!-- Uploaded to: SVG Repo, www.svgrepo.com, Generator: SVG Repo Mixer Tools -->

<svg
   fill="#000000"
   height="32"
   width="13"
   version="1.1"
   id="Layer_1"
   viewBox="0 0 8.3200163 20.48004"
   xml:space="preserve"
   sodipodi:docname="thermometer.svg"
   inkscape:export-filename="thermometer-temperature.png"
   inkscape:export-xdpi="96"
   inkscape:export-ydpi="96"
   inkscape:version="1.3.2 (091e20e, 2023-11-25, custom)"
   xmlns:inkscape="http://www.inkscape.org/namespaces/inkscape"
   xmlns:sodipodi="http://sodipodi.sourceforge.net/DTD/sodipodi-0.dtd"
   xmlns="http://www.w3.org/2000/svg"
   xmlns:svg="http://www.w3.org/2000/svg"><defs
   id="defs14" /><sodipodi:namedview
   id="namedview14"
   pagecolor="#ffffff"
   bordercolor="#000000"
   borderopacity="0.25"
   inkscape:showpageshadow="2"
   inkscape:pageopacity="0.0"
   inkscape:pagecheckerboard="0"
   inkscape:deskcolor="#d1d1d1"
   inkscape:zoom="24.34"
   inkscape:cx="31.573542"
   inkscape:cy="20.193098"
   inkscape:window-width="2560"
   inkscape:window-height="1494"
   inkscape:window-x="-11"
   inkscape:window-y="-11"
   inkscape:window-maximized="1"
   inkscape:current-layer="Layer_1" />






<g
   id="g15"
   transform="translate(-6.9613591,0.07437128)"><g
     id="g2"
     transform="matrix(0.04,0,0,0.04,0.8813378,-0.07437125)">
	<g
   id="g1">
		<path
   d="M 281.12,353.354 V 42.221 C 281.12,18.941 262.18,0 238.899,0 215.617,0 196.678,18.941 196.678,42.221 v 311.133 c -26.391,15.093 -42.646,42.761 -42.756,73.36 -0.078,21.959 8.481,42.96 24.097,59.132 15.624,16.179 36.315,25.453 58.26,26.115 0.886,0.026 1.767,0.04 2.649,0.04 22.227,-10e-4 43.14,-8.461 59.142,-23.987 16.642,-16.149 25.806,-37.809 25.806,-60.992 -10e-4,-30.731 -16.257,-58.517 -42.756,-73.668 z m 5.785,123.152 c -13.496,13.095 -31.316,20.003 -50.142,19.427 -17.741,-0.534 -34.507,-8.072 -47.21,-21.226 -12.701,-13.152 -19.661,-30.176 -19.597,-47.937 0.093,-26.181 14.773,-49.723 38.31,-61.438 2.724,-1.355 4.444,-4.136 4.444,-7.177 V 42.221 c 0,-14.44 11.748,-26.188 26.188,-26.188 14.44,0 26.188,11.748 26.188,26.188 v 315.935 c 0,3.042 1.721,5.821 4.444,7.177 23.632,11.762 38.311,35.4 38.311,61.689 10e-4,18.809 -7.434,36.383 -20.936,49.484 z"
   id="path1" />
	</g>
</g><g
     id="g4"
     transform="matrix(0.04,0,0,0.04,0.8813378,-0.07437125)">
	<g
   id="g3">
		<path
   d="M 246.915,376.889 V 93.528 c 0,-4.427 -3.589,-8.017 -8.017,-8.017 -4.427,0 -8.017,3.589 -8.017,8.017 v 283.361 c -24.2,3.855 -42.756,24.866 -42.756,50.133 0,27.995 22.777,50.772 50.772,50.772 27.995,0 50.772,-22.777 50.772,-50.772 0.002,-25.267 -18.554,-46.278 -42.754,-50.133 z m -8.016,84.872 c -19.155,0 -34.739,-15.584 -34.739,-34.739 0,-19.155 15.584,-34.739 34.739,-34.739 19.155,0 34.739,15.584 34.739,34.739 0,19.155 -15.584,34.739 -34.739,34.739 z"
   id="path2" />
	</g>
</g><g
     id="g6"
     transform="matrix(0.04,0,0,0.04,0.8813378,-0.07437125)">
	<g
   id="g5">
		<path
   d="m 350.063,256.534 h -42.756 c -4.427,0 -8.017,3.589 -8.017,8.017 0,4.428 3.589,8.017 8.017,8.017 h 42.756 c 4.427,0 8.017,-3.589 8.017,-8.017 0,-4.428 -3.588,-8.017 -8.017,-8.017 z"
   id="path4" />
	</g>
</g><g
     id="g8"
     transform="matrix(0.04,0,0,0.04,0.8813378,-0.07437125)">
	<g
   id="g7">
		<path
   d="m 332.961,213.778 h -25.653 c -4.427,0 -8.017,3.589 -8.017,8.017 0,4.427 3.589,8.017 8.017,8.017 h 25.653 c 4.427,0 8.017,-3.589 8.017,-8.017 0,-4.427 -3.59,-8.017 -8.017,-8.017 z"
   id="path6" />
	</g>
</g><g
     id="g10"
     transform="matrix(0.04,0,0,0.04,0.8813378,-0.07437125)">
	<g
   id="g9">
		<path
   d="m 350.063,171.023 h -42.756 c -4.427,0 -8.017,3.589 -8.017,8.017 0,4.427 3.589,8.017 8.017,8.017 h 42.756 c 4.427,0 8.017,-3.589 8.017,-8.017 0,-4.428 -3.588,-8.017 -8.017,-8.017 z"
   id="path8" />
	</g>
</g><g
     id="g12"
     transform="matrix(0.04,0,0,0.04,0.8813378,-0.07437125)">
	<g
   id="g11">
		<path
   d="m 332.961,128.267 h -25.653 c -4.427,0 -8.017,3.589 -8.017,8.017 0,4.427 3.589,8.017 8.017,8.017 h 25.653 c 4.427,0 8.017,-3.589 8.017,-8.017 0,-4.428 -3.59,-8.017 -8.017,-8.017 z"
   id="path10" />
	</g>
</g><g
     id="g14"
     transform="matrix(0.04,0,0,0.04,0.8813378,-0.07437125)">
	<g
   id="g13">
		<path
   d="m 350.063,85.511 h -42.756 c -4.427,0 -8.017,3.589 -8.017,8.017 0,4.427 3.589,8.017 8.017,8.017 h 42.756 c 4.427,0 8.017,-3.589 8.017,-8.017 0,-4.427 -3.589,-8.017 -8.017,-8.017 z"
   id="path12" />
	</g>
</g></g>
</svg>
